Coordinates
version=1
nRows=7
nColumns=40
inDegrees=yes

Units are S.I. units (second, meters, Newtons, ...)
Angles are in degrees.

endheader
time	pelvis_tilt	pelvis_list	pelvis_rotation	pelvis_tx	pelvis_ty	pelvis_tz	hip_flexion_r	hip_adduction_r	hip_rotation_r	knee_angle_r	knee_angle_r_beta	ankle_angle_r	subtalar_angle_r	mtp_angle_r	hip_flexion_l	hip_adduction_l	hip_rotation_l	knee_angle_l	knee_angle_l_beta	ankle_angle_l	subtalar_angle_l	mtp_angle_l	lumbar_extension	lumbar_bending	lumbar_rotation	arm_flex_r	arm_add_r	arm_rot_r	elbow_flex_r	pro_sup_r	wrist_flex_r	wrist_dev_r	arm_flex_l	arm_add_l	arm_rot_l	elbow_flex_l	pro_sup_l	wrist_flex_l	wrist_dev_l
      0.96000000	     -3.05214935	     -2.78501932	      2.88390188	      0.58553469	      0.95313352	     -1.01623489	     17.33548492	      4.91730704	    -16.12755342	    -22.71238479	     -0.39640590	      4.23481128	    -10.12787193	      4.68788980	     14.30139618	     12.45736237	      7.81863905	    -59.44912714	     -1.03758301	      2.38391976	     17.92200234	     11.00953008	      2.43798915	      4.49659267	     -9.11716778	     -6.41230652	     -9.37556808	    -24.28339981	     12.76299881	     89.95437384	      0.00000000	      0.00000000	      4.99000813	     16.05262856	     11.73405234	     40.37478733	     89.95437384	      0.00000000	      0.00000000
      0.97000000	     -3.24411716	     -2.28132346	      2.95987396	      0.59728580	      0.95535790	     -1.01458619	     16.21608334	      4.54781902	    -16.40617559	    -21.82798439	     -0.38097020	      4.70890349	     -9.50573888	      4.47032002	     16.12370657	     11.42109655	      7.28519767	    -59.32273316	     -1.03537701	      3.09721748	     17.91987291	     10.85225772	      2.46839157	      3.83210639	     -8.84513198	     -5.70801766	     -9.21062589	    -24.28861468	     13.46092228	     89.95437384	      0.00000000	      0.00000000	      4.25739398	     15.61282630	     11.21910018	     39.24717588	     89.95437384	      0.00000000	      0.00000000
      0.98000000	     -3.20683787	     -1.44377463	      2.94098770	      0.60914616	      0.95776547	     -1.01317918	     14.95204632	      3.61262239	    -17.28585103	    -21.31281660	     -0.37197882	      5.50067840	     -7.35579262	      3.26978353	     17.46642602	      9.98729983	      7.04604841	    -58.74312026	     -1.02526086	      3.78797511	     17.91143341	     11.91461542	      2.19234224	      2.83529793	     -8.41162950	     -4.94740821	     -9.01090032	    -24.50558571	     14.14478550	     89.95437384	      0.00000000	      0.00000000	      3.55262103	     15.28681577	     10.42100346	     38.07451410	     89.95437384	      0.00000000	      0.00000000
      0.99000000	     -3.49226216	     -0.95184904	      2.72661948	      0.62097039	      0.95938406	     -1.01088977	     13.97400838	      3.38460127	    -17.18068441	    -20.43804115	     -0.35671111	      5.80636800	     -7.00573300	      3.06795267	     19.10707622	      9.17105672	      7.13154191	    -57.87523573	     -1.01011342	      4.06034912	     17.71888862	     11.79937113	      2.33173613	      2.19177637	     -7.94376337	     -4.29119085	     -8.85432325	    -24.26222534	     15.05930963	     89.95437384	      0.00000000	      0.00000000	      2.67351706	     14.90230630	     10.01971018	     36.85593236	     89.95437384	      0.00000000	      0.00000000
      1.00000000	     -3.66429650	     -0.34879941	      2.30599485	      0.63305626	      0.96091024	     -1.00850518	     12.84930081	      3.06664590	    -16.88311253	    -19.53922712	     -0.34102385	      6.09665507	     -6.53088718	      2.82049324	     20.43010388	      8.34421621	      7.57923321	    -56.66308892	     -0.98895747	      4.18645075	     17.49652580	     11.73054872	      2.37481937	      1.44618545	     -7.27080201	     -3.62162446	     -8.77764801	    -23.88659709	     15.94580876	     89.95437384	      0.00000000	      0.00000000	      1.82139869	     14.56015928	      9.53341678	     35.48720594	     89.95437384	      0.00000000	      0.00000000
      1.01000000	     -3.90811788	     -0.02601881	      1.83530043	      0.64500262	      0.96185644	     -1.00572778	     12.03601170	      2.96991753	    -17.19848738	    -19.04723913	     -0.33243704	      6.47176025	     -6.37547989	      2.66473354	     21.85355368	      8.01915716	      8.24429096	    -55.29473588	     -0.96507520	      4.33181342	     17.26727950	     11.59524626	      2.50260598	      0.98993324	     -6.67501552	     -2.81940929	     -8.68021270	    -23.61566607	     16.76962916	     89.95437384	      0.00000000	      0.00000000	      0.68765592	     14.23803082	      9.13869220	     34.51039227	     89.95437384	      0.00000000	      0.00000000
      1.02000000	     -3.73959293	      0.88791030	      0.93810331	      0.65717833	      0.96355493	     -1.00285805	     10.50082443	      2.39246464	    -16.19903688	    -17.99506323	     -0.31407310	      6.75680348	     -5.23930713	      2.27763676	     22.36655129	      7.06352820	      9.31124535	    -53.20863297	     -0.92866584	      4.22532615	     16.91708750	     11.55881121	      2.15386936	     -0.02907073	     -5.47766331	     -2.25792910	     -8.64933990	    -22.72837711	     17.99445876	     89.95437384	      0.00000000	      0.00000000	      0.06629292	     13.97633443	      8.40746022	     32.75632389	     89.95437384	      0.00000000	      0.00000000
